<!-- icon666.com - MILLIONS vector ICONS FREE --><svg clip-rule="evenodd" fill-rule="evenodd" stroke-linejoin="round" stroke-miterlimit="2" viewBox="0 0 32 32" xmlns="http://www.w3.org/2000/svg"><path d="m31.015 8.189c0-.795-.316-1.558-.878-2.121-.563-.563-1.326-.879-2.122-.879-5.159 0-18.871 0-24.03 0-.796 0-1.559.316-2.122.879-.562.563-.878 1.326-.878 2.121v15.622c0 .795.316 1.558.878 2.121.563.563 1.326.879 2.122.879h24.03c.796 0 1.559-.316 2.122-.879.562-.563.878-1.326.878-2.121zm-2 0v15.622c0 .265-.105.519-.293.707-.187.187-.441.293-.707.293h-24.03c-.266 0-.52-.106-.707-.293-.188-.188-.293-.442-.293-.707v-15.622c0-.265.105-.519.293-.707.187-.187.441-.293.707-.293h24.03c.266 0 .52.106.707.293.188.188.293.442.293.707z"></path><path d="m2.901 8.465 12.613 7.008c.302.167.67.167.972 0l12.613-7.008c.483-.268.657-.877.389-1.36-.268-.482-.877-.656-1.36-.388l-12.128 6.738s-12.128-6.738-12.128-6.738c-.483-.268-1.092-.094-1.36.388-.268.483-.094 1.092.389 1.36z"></path></svg>