<!-- icon666.com - MILLIONS vector ICONS FREE --><svg xmlns="http://www.w3.org/2000/svg" viewBox="0 0 64 64"><g id="Layer_93" data-name="Layer 93"><path d="M47.81,52.75H16.19a.76.76,0,0,1-.75-.75V32.75H12a.74.74,0,0,1-.69-.46.75.75,0,0,1,.16-.82l20-20a.75.75,0,0,1,1.06,0l6.06,6.06V15.2a.76.76,0,0,1,.75-.75h6a.76.76,0,0,1,.75.75V25l6.43,6.43a.75.75,0,0,1,.16.82.74.74,0,0,1-.69.46H48.56V52A.76.76,0,0,1,47.81,52.75Zm-30.87-1.5H47.06V32a.75.75,0,0,1,.75-.75h2.38l-5.37-5.37a.75.75,0,0,1-.22-.53V16H40.09v3.39a.75.75,0,0,1-1.28.53L32,13.06,13.81,31.25h2.38a.75.75,0,0,1,.75.75Z"></path><path d="M48,60.75H16A12.76,12.76,0,0,1,3.25,48V16A12.76,12.76,0,0,1,16,3.25H48A12.76,12.76,0,0,1,60.75,16V48A12.76,12.76,0,0,1,48,60.75Zm-32-56A11.27,11.27,0,0,0,4.75,16V48A11.27,11.27,0,0,0,16,59.25H48A11.27,11.27,0,0,0,59.25,48V16A11.27,11.27,0,0,0,48,4.75Z"></path></g></svg>