<?xml version="1.0" encoding="utf-8"?>
<!-- Generator: Adobe Illustrator 25.3.1, SVG Export Plug-In . SVG Version: 6.00 Build 0)  -->
<svg version="1.1" id="Слой_1" xmlns="http://www.w3.org/2000/svg" xmlns:xlink="http://www.w3.org/1999/xlink" x="0px" y="0px"
	 viewBox="0 0 72.5 66.4" style="enable-background:new 0 0 72.5 66.4;" xml:space="preserve">
<style type="text/css">
	.st0{stroke:#000000;stroke-miterlimit:10;}
	.st1{enable-background:new    ;}
	.st2{fill:#FFFFFF;}
</style>
<path class="st0" d="M56,56.3H18.8c-3,0-5.4-2.4-5.4-5.4V13.7c0-3,2.4-5.4,5.4-5.4H56c3,0,5.4,2.4,5.4,5.4v37.1
	C61.4,53.8,59,56.3,56,56.3z"/>
<g class="st1">
	<path class="st2" d="M54.3,45.6H49l-8.1-7.3H29.1v-3.6h15.5c1.1,0,2.1-0.2,2.9-0.7c0.9-0.5,1.6-1.2,2.1-2c0.5-0.8,0.8-1.7,0.8-2.7
		c0-1-0.3-1.9-0.8-2.8c-0.5-0.8-1.2-1.5-2.1-2c-0.9-0.5-1.9-0.7-2.9-0.7H26.9v21.8h-3.9V20.3h21.5c1.8,0,3.4,0.4,4.9,1.2
		c1.5,0.8,2.6,1.9,3.5,3.3c0.9,1.4,1.3,2.9,1.3,4.6c0,1.5-0.4,2.9-1.1,4.2c-0.7,1.3-1.7,2.3-2.9,3.2s-2.6,1.4-4.1,1.6L54.3,45.6z"/>
</g>
</svg>
