<!-- icon666.com - MILLIONS vector ICONS FREE --><svg viewBox="0 0 24 24" xmlns="http://www.w3.org/2000/svg"><g id="Layer_2" data-name="Layer 2"><path d="m12 22.75a10.75 10.75 0 1 1 10.75-10.75 10.762 10.762 0 0 1 -10.75 10.75zm0-20a9.25 9.25 0 1 0 9.25 9.25 9.26 9.26 0 0 0 -9.25-9.25z"></path><path d="m11 15.882a1.751 1.751 0 0 1 -1.75-1.751v-3.513a1.749 1.749 0 0 1 2.532-1.565l3.012 1.506a1.75 1.75 0 0 1 .188 3.021l-3.011 2.007a1.744 1.744 0 0 1 -.971.295zm0-5.515a.256.256 0 0 0 -.132.038.245.245 0 0 0 -.118.213v3.513a.25.25 0 0 0 .389.209l3.011-2.008a.239.239 0 0 0 .111-.224.243.243 0 0 0 -.137-.208l-3.012-1.5a.256.256 0 0 0 -.112-.033z"></path></g></svg>