<!-- icon666.com - MILLIONS vector ICONS FREE --><svg id="Capa_1" enable-background="new 0 0 447.647 447.647" viewBox="0 0 447.647 447.647" xmlns="http://www.w3.org/2000/svg"><g><path id="path20_2_" d="m44.765 0c-8.241.001-14.921 6.681-14.922 14.922v358.118c0 8.241 6.681 14.922 14.922 14.922s14.922-6.681 14.922-14.922v-343.197h29.843v164.137c.001 8.241 6.681 14.921 14.922 14.922h179.058c8.241-.001 14.921-6.681 14.922-14.922v-164.137h23.665l65.865 65.865v322.096h-29.843v-164.137c-.001-8.241-6.681-14.921-14.922-14.922h-238.746c-8.241.001-14.921 6.681-14.922 14.922v164.137h-44.764c-8.241 0-14.922 6.681-14.922 14.922s6.681 14.922 14.922 14.922h358.118c8.241-.001 14.921-6.681 14.922-14.922v-343.197c-.001-3.957-1.573-7.752-4.372-10.55l-74.608-74.607c-2.798-2.798-6.593-4.371-10.55-4.372zm74.608 29.843h149.216v149.216h-149.216zm29.843 29.843c-8.241 0-14.922 6.681-14.922 14.922v59.686c0 8.241 6.681 14.922 14.922 14.922s14.922-6.681 14.922-14.922v-59.686c-.001-8.241-6.681-14.922-14.922-14.922zm-29.843 208.902h208.902v149.216h-208.902z"></path></g></svg>